<svg width="35" height="37" viewBox="0 0 35 37" fill="none" xmlns="http://www.w3.org/2000/svg">
<g clip-path="url(#clip0)">
<path d="M0.151398 18.2307C0.151398 17.3242 0.485382 16.4177 1.15335 15.7497L1.39192 15.5111C1.7259 15.1771 2.1076 14.9386 2.53701 14.7477L2.01218 14.2229C1.24878 13.4595 0.867081 12.4575 0.81937 11.4556C0.81937 11.4556 0.81937 11.4556 0.81937 11.4079C0.81937 10.4059 1.20107 9.35624 2.01218 8.59284C2.34616 8.25885 2.72786 8.02029 3.15727 7.82944C2.63244 7.20919 2.34616 6.39807 2.34616 5.63468V5.58697V5.53925C2.34616 4.68043 2.68015 3.7739 3.34812 3.10593L3.96838 2.48567C4.63635 1.81769 5.54289 1.48371 6.44942 1.48371C7.21282 1.48371 7.9285 1.72227 8.54876 2.19939C8.73961 1.76998 8.97817 1.38828 9.31216 1.0543C9.98013 0.386324 10.8867 0.0523376 11.7932 0.0523376C12.6997 0.0523376 13.6063 0.386324 14.2742 1.0543L22.767 9.49938C22.5762 8.87912 22.433 8.30657 22.433 7.68631C22.433 6.8752 22.6716 6.06409 23.1487 5.3484C23.6259 4.63272 24.3415 4.10788 25.2004 3.72619H25.2481L25.3435 3.67847C25.5343 3.63076 25.7252 3.58305 25.9638 3.58305C26.6317 3.58305 27.2997 3.96475 27.6337 4.58501C27.7291 4.72814 29.0173 7.01834 30.4964 9.88107C31.2598 11.3602 32.0709 12.9824 32.7866 14.5569C33.5023 16.1314 34.1226 17.6105 34.5043 18.8987C34.552 18.9941 34.9814 20.3778 34.9814 22.4294C34.9814 23.7176 34.7905 25.3399 34.1703 27.0098C33.55 28.6797 32.5481 30.4928 30.8781 32.115C29.4468 33.5464 27.8245 34.5483 26.2023 35.1686C24.5801 35.7889 22.9579 36.0274 21.4311 36.0274C19.8089 36.0274 18.2821 35.7411 17.0416 35.3117C15.801 34.8823 14.7514 34.3098 14.0834 33.6418L1.20107 20.7595C0.533092 19.9961 0.199108 19.1373 0.151398 18.2307ZM25.4866 33.0693C26.8226 32.5444 28.1585 31.781 29.399 30.5405C30.8304 29.1091 31.6892 27.6301 32.2141 26.1987C32.7389 24.815 32.882 23.4791 32.882 22.334C32.882 21.4752 32.7866 20.7118 32.6912 20.2346C32.6435 19.9961 32.5958 19.8052 32.5481 19.6621C32.5481 19.6144 32.5003 19.5667 32.5003 19.519V19.4712C32.1664 18.3739 31.5938 16.9425 30.8781 15.4157C29.8285 13.1255 28.5879 10.6922 27.586 8.78369C27.0611 7.82944 26.6317 7.06605 26.3455 6.4935C26.2023 6.20722 26.0592 6.01638 25.9638 5.82553C25.9638 5.77782 25.916 5.77781 25.916 5.7301C25.4866 5.96866 25.2004 6.20722 25.0095 6.4935C24.771 6.82749 24.6755 7.16147 24.6755 7.59088C24.6755 8.11572 24.8187 8.73598 25.2004 9.45166L27.4906 14.0798C27.586 14.2229 27.586 14.4137 27.586 14.5569C27.586 14.8909 27.4428 15.2249 27.1089 15.4634C26.918 15.6066 26.6794 15.6543 26.4886 15.6543C26.2023 15.6543 25.916 15.5588 25.7252 15.3203L12.8429 2.43795C12.5566 2.19939 12.2703 2.05625 11.8886 2.05625C11.5546 2.05625 11.2207 2.19939 10.9344 2.43795C10.6958 2.67651 10.5527 3.0105 10.5527 3.3922C10.5527 3.72619 10.6958 4.06017 10.9344 4.34645L20.5246 14.032C20.7154 14.2229 20.8585 14.5092 20.8585 14.7954C20.8585 15.0817 20.7631 15.368 20.5246 15.5588C20.3337 15.7497 20.0474 15.8928 19.7612 15.8928C19.4749 15.8928 19.1886 15.7974 18.9978 15.5588L9.35987 5.92095L7.40367 3.96475C7.1174 3.72619 6.83112 3.58305 6.44942 3.58305C6.11544 3.58305 5.78145 3.72619 5.49518 3.96475L4.87492 4.58501C4.63635 4.87128 4.49322 5.15756 4.49322 5.53925C4.49322 5.87324 4.63635 6.20722 4.87492 6.4935L6.92655 8.54513L11.1252 12.6961L16.469 18.0399C16.6599 18.2307 16.803 18.517 16.803 18.8033C16.803 19.0896 16.7076 19.3758 16.469 19.5667C16.2782 19.7575 15.9919 19.9007 15.7056 19.9007C15.4193 19.9007 15.1331 19.8052 14.9422 19.5667L14.4174 19.0418L5.44746 10.0719C5.16119 9.83336 4.87492 9.69022 4.49322 9.69022C4.15923 9.69022 3.82524 9.83336 3.53897 10.0719C3.15727 10.4536 3.01414 10.883 3.01414 11.3602C3.01414 11.8373 3.20498 12.3144 3.53897 12.6484L6.354 15.5111L13.32 22.4294L14.0834 23.1928C14.2742 23.3837 14.4174 23.6699 14.4174 23.9562C14.4174 24.2425 14.322 24.5288 14.0834 24.7196C13.8925 24.9105 13.6063 25.0536 13.32 25.0536C13.0337 25.0536 12.7474 24.9582 12.5566 24.7196L12.0795 24.2425L6.354 18.517L4.87492 17.0379C4.58864 16.7994 4.30237 16.6562 3.92067 16.6562C3.58669 16.6562 3.2527 16.7994 2.96642 17.0379L2.72786 17.2765C2.4893 17.5628 2.34616 17.849 2.34616 18.2307C2.34616 18.5647 2.4893 18.8987 2.72786 19.185L15.6102 32.0673C15.7533 32.2104 16.0396 32.449 16.4213 32.6398C16.803 32.8307 17.2324 33.0693 17.7572 33.2124C18.8069 33.5464 20.0951 33.7849 21.4788 33.7849C22.767 33.7849 24.1507 33.5941 25.4866 33.0693Z" fill="#757AE9"/>
<path d="M20.1747 19.0713V29.6954C20.1747 31.7195 21.7328 33.4793 23.6889 32.9592C29.2185 31.4891 34.5341 25.3913 30.9498 16.9651L25.6769 6.49565C25.562 7.14789 25.6599 7.81978 25.9561 8.41214L28.5777 13.6554C28.8554 14.2108 28.9806 14.8498 28.5956 15.3371C28.2265 15.8041 27.6312 16.3134 26.9212 16.6357C26.0685 17.0228 25.1377 16.5741 24.5011 15.8872L20.6093 11.6877C20.4253 11.4892 20.0942 11.5786 20.0352 11.8427C20.0129 11.9422 20.037 12.0463 20.1007 12.1258L21.8445 14.3056C21.9479 14.4349 22.0373 14.5746 22.1113 14.7226L22.1428 14.7856C22.3733 15.2466 22.4313 15.7748 22.3063 16.2749L22.1992 16.7032C22.0761 17.1954 21.6972 17.5829 21.2079 17.717C20.5977 17.8841 20.1747 18.4386 20.1747 19.0713Z" fill="#BABCF4"/>
</g>
<defs>
<clipPath id="clip0">
<rect width="35" height="36.0699" fill="white" transform="matrix(-1 0 0 1 35 0)"/>
</clipPath>
</defs>
</svg>
